# xmcd CD database file
#
# Track frame offsets:
#	150
#	17750
#	34000
#	49945
#	65060
#	83632
#	103215
#	115382
#	132920
#	151022
#	168325
#	188805
#
# Disc length: 2772 seconds
#
# Revision: 0
# Processed by: cddbd v1.5PL3 Copyright (c) Steve Scherf et al.
# Submitted via: CDex 1.51
#
DISCID=9b0ad20c
DTITLE=新田恵利 - ritardando(リタルダンド)
DYEAR=1987
DGENRE=Pop
TTITLE0=星空の動物園(ZOO)
TTITLE1=わがままじゃない
TTITLE2=時計のサンバ
TTITLE3=若草の招待状
TTITLE4=銀色のスーベニール
TTITLE5=夕陽と風とメロディ
TTITLE6=2人のHONG KONG
TTITLE7=ムーンライト・ランデヴー
TTITLE8=悲しみに方舟を出して
TTITLE9=アナザー・マリン
TTITLE10=楽園に連れて行って
TTITLE11=内緒で浪漫映画(ラブストーリー)
EXTD=YEAR: 1987
EXTT0=
EXTT1=
EXTT2=
EXTT3=
EXTT4=
EXTT5=
EXTT6=
EXTT7=
EXTT8=
EXTT9=
EXTT10=
EXTT11=
PLAYORDER=
